<svg xmlns="http://www.w3.org/2000/svg" viewBox="0 0 1360.59 372.58"><defs><style>.cls-1{fill:#184ab3;}</style></defs><title>Asset 2</title><g id="Layer_2" data-name="Layer 2"><g id="Layer_1-2" data-name="Layer 1"><path class="cls-1" d="M0,254.78.59,0,3.78,0,1357.4,3.16h3.19q-.3,125.05-.58,250.09c-1.2-1-2.42-1.9-3.58-2.88a154.91,154.91,0,0,0-39.64-24.6,137.34,137.34,0,0,0-70-9.82c-16.6,1.88-31.65,6.36-46.24,11.79-11.89,4.43-23.9,8.81-36.38,12.42a171.28,171.28,0,0,1-61.12,6.42c-14.7-1.14-28.4-4.39-41.82-8.36-11.18-3.32-22.27-6.83-33.72-9.68-16.26-4.05-31.35-1.89-44.11,5.7a161.37,161.37,0,0,0-19.6,14.08c-12,9.78-26.87,16.21-45.64,18.61a170,170,0,0,1-43.65-.11c-21.14-2.77-42.17-6-63.09-9.47-29.18-4.83-58.22-10.07-88.5-11-23-.68-45.17,1.37-66.24,7.68-15.54,4.65-29,11.39-41.68,18.76-22.15,12.88-43.85,26.1-65.9,39.06-26.42,15.53-54.19,29.84-85.5,40.91-51.59,18.24-106.1,24-163.72,16.8-34.84-4.33-67.58-12.57-99.07-23.15-44.44-14.93-85-33.73-123.5-54.59C52.66,278.46,28.4,264.74,0,254.78Z"/></g></g></svg>