<svg xmlns="http://www.w3.org/2000/svg" viewBox="0 0 597.49 233.85"><defs><style>.cls-1{fill:#184ab3;}</style></defs><title>Asset 2</title><g id="Layer_2" data-name="Layer 2"><g id="Layer_2-2" data-name="Layer 2"><path class="cls-1" d="M597.49,28.77a398.83,398.83,0,0,1-64,45c-40,22.63-60,34-87,33-33.73-1.18-72.9-20.92-97-48-9.15-10.28-16.67-22.23-34-30-16.54-7.41-32.26-6.64-43-6-38,2.29-44.94,19.65-66,14s-20.3-24.69-41-28c-19.62-3.13-23.52,13.47-48,13-11.86-.22-11.19-4.13-51-16C47.37.07,42.25-.51,36.49.28,19.77,2.58,8.2,15,2.22,22.77c0,152-5,178.21,0,187,3.43,6.06,12.09-8.74,30.27-25,10-9,62.33-55.74,119-53,34.36,1.67,61.84,21.12,97,46,34.62,24.5,33.72,33.92,53,38,40.73,8.63,66.38-28.77,98-14,17.93,8.38,16.9,23.75,35,27,19.25,3.46,26-12.91,50-13,21.42-.08,26.61,12.91,48,17,14.37,2.75,35.67,1.43,65-18Z"/></g></g></svg>